<svg viewBox="0 0 507 505" xmlns="http://www.w3.org/2000/svg">
<path d="M431.006 73.3254C383.613 26.0414 320.462 0 253.37 0C114.896 0 2.17561 112.124 2.17561 249.997C2.17561 294.004 13.7005 337.016 35.633 374.995L0 504.5L133.183 469.681C169.815 489.636 211.152 500.111 253.194 500.111H253.312C391.669 500.111 506.859 387.987 506.859 250.114C506.859 183.343 478.34 120.609 430.947 73.3254H431.006ZM103.783 275.57C99.4901 257.663 117.659 241.98 135.064 250.933C147.53 257.37 138.298 262.286 154.998 262.696C164.053 262.93 176.518 261.174 184.515 264.978C188.514 266.851 197.804 276.975 200.627 280.544C207.095 288.737 205.801 296.111 205.742 307.229C205.566 328.823 210.27 318.29 216.561 327.887C221.442 335.378 218.855 349.539 213.974 354.396C201.979 366.276 175.225 357.498 177.577 337.075C178.812 326.365 187.279 325.137 190.278 317.587C196.099 303.016 190.043 278.321 168.404 276.858C154.998 275.921 149.941 276.272 142.767 283.646C130.007 296.696 108.075 293.477 103.841 275.57H103.783ZM372.617 209.618C378.792 210.613 377.321 211.608 382.966 208.682C386.612 201.308 382.908 198.851 376.145 198.441C372.147 202.83 372.088 202.245 372.676 209.618H372.617ZM328.106 146.709C330.164 137.814 327.165 134.42 318.168 136.761C313.7 144.661 318.227 152.152 328.106 146.709ZM196.217 333.271C192.689 337.777 190.983 337.601 194.276 344.331C207.447 351.88 213.21 331.866 196.217 333.271ZM187.749 163.153L200.509 163.27C201.509 156.248 201.332 156.365 198.216 151.449L189.337 151.274C187.514 155.312 187.103 158.53 187.749 163.212V163.153ZM368.854 287.567L370.324 277.56C364.856 275.219 363.856 274.049 357.329 276.155C354.154 286.747 360.152 289.088 368.854 287.567ZM120.599 265.271C115.366 274.283 121.658 280.661 132.065 274.809C134.888 263.515 129.713 261.701 120.599 265.271ZM264.66 242.038C274.597 245.432 302.763 244.847 315.875 243.969C329.046 243.033 337.808 228.345 346.863 221.03C354.037 215.236 355.859 216.816 356.447 204.937C357.035 194.11 357.329 190.716 366.502 186.678C384.142 178.895 393.08 194.462 408.838 189.78C411.543 174.506 404.605 153.322 396.667 144.778C381.849 128.861 371.441 127.632 362.798 120.609L349.333 122.482C349.039 121.955 348.803 121.312 348.627 120.902L346.804 116.338C344.452 110.427 343.805 107.794 338.16 102.644C334.926 99.7179 327.576 94.2755 320.873 91.8762C254.37 68.2927 265.954 110.251 265.895 139.804C265.836 153.088 264.543 184.981 266.601 195.573C268.835 197.271 267.247 196.568 271.069 197.68L285.887 198.441C295.354 198.324 297 199.085 302.351 193.467C315.875 179.246 313.464 180.241 313.582 163.388C283.653 138.634 307.232 118.912 322.931 119.79C345.217 121.019 355.271 150.864 330.634 163.388C328.517 194.52 329.223 183.987 312.23 203.24C294.707 223.136 269.482 201.894 266.013 219.918C265.013 225.243 267.071 232.148 264.66 241.98V242.038ZM320.226 353.636C319.521 339.591 335.573 334.149 339.748 346.906C344.805 362.414 320.814 366.1 320.226 353.636ZM337.102 394.366C338.16 391.03 336.69 394.424 338.748 391.03L343.394 385.236C347.804 380.496 342.923 384.827 345.393 383.364C350.685 373.064 372.323 382.779 392.904 359.722C405.252 345.911 406.78 328.999 406.604 305.298C408.897 298.451 425.949 303.484 431.888 272.469C435.357 254.386 433.946 236.947 427.655 222.317C424.009 216.699 425.832 220.152 425.185 215.529C418.952 211.198 413.895 205.054 401.488 205.405C396.373 211.608 397.137 217.343 389.493 222.551C379.615 229.281 372.559 224.307 362.386 223.487C357.917 229.456 353.213 233.845 347.804 240.458C343.453 245.784 339.278 253.04 330.634 256.727C316.698 262.579 276.067 254.152 268.365 261.642C263.19 266.383 264.013 315.364 268.129 319.402C273.774 324.668 285.711 320.806 290.885 317.704C294.119 303.426 289.239 291.195 300.058 282.124C315.464 269.192 332.104 286.63 343.805 269.777C363.151 241.98 393.727 269.484 383.966 289.205C369.089 319.109 345.099 292.014 336.396 290.493C284.711 281.364 322.343 323.264 293.178 332.686C266.189 341.405 265.366 324.785 264.719 366.627C264.19 403.553 283.888 409.288 314.699 404.431C329.282 402.149 327.812 398.052 337.278 394.366H337.102ZM98.3729 205.639C95.1389 209.267 90.1997 211.257 85.7308 219.391C73.9708 240.809 74.9116 274.4 88.0828 292.19C92.7869 298.568 98.6081 302.197 101.666 306.469C109.251 316.885 93.6689 344.038 129.949 367.563C161.76 388.162 152.234 368.675 168.051 387.285C174.049 394.307 193.806 405.309 207.977 406.596C252.782 410.634 251.136 368.207 248.137 331.281L243.845 259.945C243.433 259.711 242.904 259.419 242.492 259.243C242.022 259.068 241.552 258.833 241.081 258.658C240.082 258.248 237.083 257.839 235.084 257.253C221.736 253.274 221.442 241.453 209.388 239.697C196.746 237.825 165.405 243.092 157.056 236.362C143.649 231.095 142.767 224.424 142.708 206.868C142.591 191.184 140.415 181.587 148.882 170.761C159.76 156.892 167.463 165.904 173.226 152.152C177.871 141.091 184.927 133.308 201.391 138.341C228.028 146.417 214.856 188.083 185.515 176.672C177.459 173.511 178.282 169.122 169.345 172.224C151.234 178.369 154.586 214.007 158.408 220.269C168.522 233.319 204.331 218.63 216.209 227.935C234.496 228.169 225.44 244.672 246.902 242.155L247.49 104.399C245.962 67.4734 164.288 87.7798 164.523 121.604C134.829 118.971 122.305 138.517 112.191 150.923C108.016 156.014 104.723 157.594 102.313 168.888C99.9605 179.656 100.666 193.057 102.43 203.181L98.4317 205.639H98.3729ZM253.429 457.977C215.856 457.977 179.106 447.97 147.06 429.068L139.474 424.562L60.5055 445.161L81.556 368.5L76.558 360.6C55.6251 327.477 44.6294 289.322 44.6294 249.997C44.6294 135.474 138.298 42.2514 253.488 42.2514C309.29 42.2514 361.681 63.9037 401.018 103.171C440.414 142.496 464.581 194.579 464.522 250.114C464.522 364.754 368.443 457.977 253.429 457.977Z"/>
</svg>
