<svg width="502" height="457" viewBox="0 0 502 457" fill="none" xmlns="http://www.w3.org/2000/svg">
<path fill-rule="evenodd" clip-rule="evenodd" d="M37.2 271.1C31.2 245.7 56.8 223.6 81.3 236.2C98.9 245.3 85.9 252.3 109.4 252.8C122.1 253.1 139.7 250.7 151 256.1C156.6 258.8 169.8 273.1 173.7 278.2C182.8 289.8 181 300.2 180.9 316C180.7 346.6 187.3 331.7 196.1 345.2C203 355.8 199.3 375.9 192.4 382.7C175.5 399.5 137.8 387.1 141.1 358.2C142.9 343 154.8 341.3 159 330.6C167.2 309.9 158.7 275 128.2 272.9C109.3 271.6 102.2 272.1 92.1 282.5C74.1 301 43.2 296.5 37.2 271.1ZM416.1 177.7C424.8 179.1 422.7 180.5 430.7 176.4C435.9 166 430.6 162.5 421 161.9C415.3 168.1 415.3 167.3 416.1 177.7ZM353.4 88.6C356.3 76 352.1 71.2 339.4 74.5C333.1 85.7 339.5 96.3 353.4 88.6ZM167.5 352.8C162.5 359.2 160.1 358.9 164.7 368.5C183.3 379.2 191.4 350.9 167.5 352.8ZM155.5 111.9L173.5 112C174.9 102.1 174.6 102.2 170.3 95.3L157.7 95C155.1 100.7 154.6 105.3 155.5 111.9ZM410.7 288.1L412.8 273.9C405.1 270.6 403.7 268.9 394.5 271.9C390.1 286.9 398.5 290.3 410.8 288.1H410.7ZM60.8 256.5C53.4 269.3 62.3 278.3 77 270.1C81 254.1 73.7 251.5 60.8 256.5ZM263.8 223.6C277.8 228.4 317.5 227.6 336 226.3C354.5 225 366.9 204.2 379.6 193.8C389.7 185.6 392.3 187.8 393.1 171C393.9 155.7 394.4 150.9 407.3 145.2C432.2 134.2 444.7 156.2 467 149.6C470.8 128 461.1 98 449.8 85.9C428.9 63.4 414.2 61.6 402.1 51.7L383.1 54.3C382.7 53.6 382.4 52.6 382.1 52.1L379.5 45.7C376.2 37.4 375.3 33.6 367.3 26.3C362.7 22.1 352.4 14.4 343 11.1C249.3 -22.3 265.6 37.1 265.5 79C265.5 97.8 263.6 143 266.5 157.9C269.7 160.3 267.4 159.4 272.8 160.9L293.6 162C306.9 161.8 309.3 163 316.8 155C335.9 134.8 332.5 136.2 332.6 112.4C290.4 77.3 323.7 49.5 345.7 50.7C377.1 52.5 391.3 94.7 356.5 112.4C353.5 156.5 354.5 141.6 330.5 168.9C305.8 197.1 270.2 167 265.4 192.5C264 200.1 266.8 209.8 263.5 223.7L263.8 223.6ZM342.1 381.6C341.1 361.7 363.7 354 369.6 372.1C376.8 394.1 342.9 399.3 342.1 381.6ZM365.8 439.3C367.3 434.6 365.2 439.3 368.1 434.6L374.6 426.4C380.8 419.7 373.9 425.8 377.4 423.7C384.8 409.2 415.3 422.9 444.4 390.3C461.8 370.7 463.9 346.8 463.7 313.2C466.9 303.5 491 310.6 499.4 266.7C504.3 241.1 502.3 216.4 493.4 195.7C488.3 187.8 490.9 192.6 489.9 186.1C481.1 180 474 171.3 456.5 171.7C449.3 180.5 450.4 188.6 439.5 196C425.6 205.5 415.7 198.5 401.3 197.3C395 205.8 388.4 212 380.7 221.4C374.5 229 368.7 239.3 356.5 244.4C336.8 252.7 279.6 240.8 268.7 251.3C261.4 258 262.6 327.4 268.3 333.1C276.2 340.5 293.1 335.1 300.3 330.7C304.9 310.5 298 293.2 313.2 280.3C334.9 262 358.3 286.7 374.8 262.9C402.1 223.5 445.2 262.5 431.4 290.4C410.4 332.7 376.6 294.3 364.4 292.2C291.6 279.3 344.6 338.6 303.5 352C265.4 364.4 264.3 340.8 263.4 400.1C262.6 452.4 290.4 460.5 333.8 453.7C354.3 450.4 352.3 444.7 365.6 439.4L365.8 439.3ZM29.4 172.1C24.8 177.2 17.9 180 11.6 191.6C-5 221.9 -3.6 269.5 14.9 294.7C21.5 303.7 29.7 308.9 34.1 314.9C44.8 329.6 22.8 368.1 74 401.4C118.8 430.6 105.4 403 127.7 429.3C136.2 439.3 164 454.9 183.9 456.6C247 462.3 244.7 402.2 240.5 350L234.4 249C233.8 248.7 233.1 248.3 232.5 248C231.9 247.7 231.2 247.4 230.5 247.2C229.1 246.7 224.9 246.1 222.1 245.2C203.3 239.6 202.9 222.9 185.9 220.3C168 217.6 123.9 225.1 112.1 215.5C93.2 208.1 92 198.6 91.8 173.7C91.7 151.5 88.5 137.9 100.5 122.6C115.9 103 126.7 115.7 134.8 96.2C141.3 80.6 151.3 69.5 174.5 76.6C212 88 193.4 147 152.1 130.9C140.7 126.5 141.9 120.3 129.3 124.6C103.8 133.3 108.5 183.8 113.9 192.6C128.2 211.1 178.6 190.3 195.4 203.4C221.2 203.7 208.4 227.1 238.6 223.6L239.5 28.6C237.3 -23.7 122.3 5.1 122.6 53C80.7 49.3 63.1 76.9 48.9 94.6C43.1 101.8 38.4 104.1 34.9 120C31.6 135.3 32.6 154.2 35 168.5L29.4 172V172.1Z" fill="black"/>
</svg>
