<?xml version="1.0" encoding="UTF-8"?>
<!DOCTYPE svg PUBLIC "-//W3C//DTD SVG 1.1//EN" "http://www.w3.org/Graphics/SVG/1.1/DTD/svg11.dtd">
<!-- Creator: CorelDRAW 2018 (64 Bit Versão de avaliação) -->
<svg xmlns="http://www.w3.org/2000/svg" xml:space="preserve" width="272.795mm" height="52.9907mm" version="1.1" style="shape-rendering:geometricPrecision; text-rendering:geometricPrecision; image-rendering:optimizeQuality; fill-rule:evenodd; clip-rule:evenodd"
viewBox="0 0 8837.62 1716.71"
 xmlns:xlink="http://www.w3.org/1999/xlink">
 <defs>
  <style type="text/css">
   <![CDATA[
    .fil0 {fill:#EC1889;fill-rule:nonzero}
   ]]>
  </style>
 </defs>
 <g id="Camada_x0020_1">
  <metadata id="CorelCorpID_0Corel-Layer"/>
  <path class="fil0" d="M861.66 1305.72c-147.59,14.12 -294.29,28.03 -441,44.23 -25.64,106.53 -51.27,213.41 -76.9,320.8 -114.88,15.51 -229.77,30.83 -343.77,45.97 81.29,-294.88 162.18,-586.85 243.92,-874.37 80.85,-284.44 163.49,-565.2 245.69,-842.35 100.74,0 201.49,0 302.23,0 82.2,267.56 163.98,532.21 246.58,792.9 81.76,258.01 164.38,513.53 246.58,766.29 -115.79,11.46 -230.68,24.35 -345.56,37.93 -26.52,-96.61 -52.13,-193.73 -77.76,-291.4zm-364.12 -270.67c95.46,-7.67 190.9,-14.8 286.33,-21.76 -23.86,-91.73 -47.76,-184.01 -71.58,-276.43 -23.88,-92.76 -47.72,-185.92 -71.58,-279.39 -23.86,95.21 -47.78,191.14 -71.58,287.04 -23.92,96.41 -47.74,193.42 -71.6,290.54zm1916 -1035.05c0,159.63 0,318.92 0,478.37 0,159.26 0,318.72 0,478.01 0,108.44 -21.07,203.8 -62.76,284.95 -42.26,82.27 -103.4,146.57 -182.05,194.96 -78.65,48.39 -172.34,77.31 -279.26,86.35 -162.6,13.74 -290.93,-21.7 -384.43,-109.5 -46.99,-44.11 -83.13,-99.06 -106.06,-163.99 -23,-65.07 -36.83,-140.64 -37.12,-225.76 -0.58,-170.58 0,-341.02 0,-511.6 0,-170.43 0,-341.02 0,-511.79 107.81,0 215.64,0 324.34,0 0,168.35 0,336.48 0,504.64 0,168.16 -1.77,336.34 0,504.47 1.73,165.93 71.58,244.01 203.27,235 66.25,-4.54 116.63,-28.6 151.11,-71.89 34.41,-43.2 51.27,-110.53 51.27,-202.09 0,-161.54 0,-323.42 0,-484.96 0,-161.54 0,-323.42 0,-485.16 106.92,0 213.87,0 321.68,0zm695.53 919.11c-58.34,1.74 -115.79,3.48 -173.22,5.22 0,84.26 0,168.15 0,252.25 0,83.89 0,167.98 0,252.05 -107.83,5.04 -215.64,12.17 -322.57,18.99 0,-241.1 0,-482.37 0,-723.64 0,-241.1 0,-482.54 0,-723.98 174.97,0 349.95,0 525.83,0 158.19,0 281.92,37.1 371.17,110.9 89.25,73.8 133.44,177.57 133.44,312.1 0,97.49 -18.78,178.05 -56.57,243.18 -37.32,64.36 -96.32,117.52 -175.86,158.78 45.97,93.65 92.78,187.17 138.74,280.25 45.93,92.99 92.8,185.92 139.65,278.68 0,4.88 0,9.58 0,14.46 -114.91,3.31 -229.79,6.79 -344.68,10.78 -39.78,-81.27 -79.63,-162.54 -118.43,-244.04 -38.94,-81.75 -78.65,-163.62 -117.52,-245.97zm-173.22 -259.89c67.16,-1.57 135.24,-3.05 203.27,-4.51 60.98,-1.28 106.88,-19.45 137.86,-54.15 30.87,-34.56 45.97,-82.52 45.97,-143.43 0,-60.77 -15.19,-108.24 -46.86,-142.92 -31.07,-34.05 -76.88,-51.13 -136.97,-50.64 -68.03,0.54 -136.1,1.2 -203.27,1.74 0,65.78 0,131.43 0,197.04 0,65.61 0,131.25 0,196.87zm1660.57 466.88c-147.57,0 -294.27,1.37 -440.98,2.59 -25.63,86.86 -51.26,173.89 -76.9,260.6 -114.88,1.37 -229.77,3.99 -343.79,7.47 81.31,-234.65 162.51,-468.68 243.91,-701.34 81.18,-232.09 163.51,-463.92 245.69,-695.43 100.76,0 201.5,0 302.26,0 82.18,231 164.42,462.35 246.58,693.53 82.2,231.31 164.38,463.2 247.44,695.06 -115.77,-0.86 -231.54,-1.74 -346.43,-2.59 -26.52,-86.52 -52.16,-173.2 -77.79,-259.89zm-363.21 -255.73c95.44,-0.52 190.9,-1.23 286.34,-1.57 -24.75,-80.24 -48.61,-160.31 -72.47,-240.22 -23.86,-79.9 -47.72,-159.97 -71.58,-240.21 -23.88,80.24 -48.65,160.83 -71.6,240.9 -23,80.21 -47.72,160.86 -70.69,241.1zm1725.1 -15.14c-173.22,-4.88 -346.43,-9.75 -518.76,-12.72 0,92.96 0,185.75 0,278.51 0,92.79 0,185.58 0,278.37 -107.84,-2.79 -215.64,-5.93 -322.59,-8.72 0,-231.69 0,-463.55 0,-695.24 0,-231.52 0,-463.55 0,-695.43 297.84,0 595.66,0 893.48,0 0,88.25 0,176.17 0,264.25 -190.88,-1.57 -380.89,-3.31 -570.89,-4.33 0,107.73 0,215.15 0,322.71 172.34,2.11 345.54,5.59 518.76,8.9 0,87.89 0,175.8 0,263.71zm507.28 325.87c186.48,9.89 372.95,22.44 560.32,35.67 0,92.62 0,185.04 0,277.29 -294.3,-25.24 -588.59,-45.59 -882,-64.93 0,-238.13 0,-476.24 0,-714.37 0,-238.13 0,-476.44 0,-714.77 106.92,0 213.87,0 321.68,0 0,197.07 0,393.94 0,590.64 0,196.87 0,393.74 0,590.47zm1039.3 360.15c-106.92,-11.32 -213.87,-22.98 -320.79,-33.42 0,-251.19 0,-502.56 0,-753.75 0,-251.19 0,-502.73 0,-754.09 106.92,0 213.87,0 320.79,0 0,256.95 0,514.05 0,770.8 0,256.75 0,513.71 0,770.46zm736.18 -999.52c36.23,-88.97 72.56,-178.37 108.7,-268.25 36.3,-90.28 72.47,-181.56 109.58,-273.49 121.96,0 244.8,0 367.65,0 -62.75,141.01 -125.26,280.65 -187.35,418.32 -61.62,136.65 -123.73,271.38 -185.6,404.72 63.64,145 127.55,291.57 190.9,439.71 63.91,149.48 128.14,301.12 192.67,453.97 -123.73,-18.28 -247.46,-36.73 -371.19,-54.83 -38.01,-99.2 -75.9,-198.01 -113.11,-295.56 -37.01,-97.01 -75.13,-193.22 -112.25,-288.81 -38,88.43 -75.95,176.74 -113.13,264.08 -37.01,86.89 -74.22,173.37 -111.34,259.38 -123.73,-15.85 -247.46,-31.68 -370.31,-44.74 63.64,-124.47 127.48,-249.8 190.9,-375.84 63.84,-126.86 127.26,-255.9 191.78,-385.73 -62.76,-135.79 -124.42,-270.36 -186.48,-403.15 -61.64,-131.94 -123.73,-262.17 -185.6,-391.52 121.96,0 243.94,0 366.76,0 36.25,89.14 72.57,178.76 108.72,268.79 36.3,90.45 72.46,181.38 108.7,272.95z"/>
 </g>
</svg>
