<?xml version="1.0" ?><svg fill="none" height="512" viewBox="0 0 512 512" width="512" xmlns="http://www.w3.org/2000/svg"><path d="M307.928 252.988C311.252 252.991 314.497 251.967 317.218 250.058C319.928 248.172 321.939 245.444 322.941 242.298C323.942 239.152 323.878 235.764 322.758 232.658L310.498 193.098C309.451 189.984 309.423 186.617 310.419 183.486C311.415 180.355 313.384 177.624 316.038 175.688L346.868 151.958C349.545 150.033 351.554 147.321 352.616 144.201C353.679 141.08 353.743 137.706 352.798 134.548C351.674 131.458 349.638 128.782 346.959 126.875C344.281 124.968 341.086 123.919 337.798 123.868H298.228C294.923 123.834 291.717 122.738 289.083 120.743C286.449 118.748 284.526 115.959 283.598 112.788L270.928 73.1779C270.006 69.9572 268.061 67.1243 265.386 65.1076C262.711 63.0909 259.453 62 256.103 62C252.753 62 249.494 63.0909 246.82 65.1076C244.145 67.1243 242.199 69.9572 241.278 73.1779L229.028 112.738C227.971 115.904 225.964 118.666 223.279 120.649C220.595 122.632 217.364 123.739 214.028 123.818H174.498C171.246 123.833 168.082 124.873 165.455 126.791C162.829 128.708 160.874 131.405 159.868 134.498C158.758 137.606 158.698 140.993 159.698 144.138C160.699 147.283 162.706 150.013 165.408 151.908L197.818 175.638C200.498 177.559 202.512 180.27 203.575 183.392C204.639 186.514 204.699 189.89 203.748 193.048L191.098 232.608C190.204 235.734 190.296 239.06 191.361 242.132C192.426 245.204 194.412 247.873 197.049 249.776C199.686 251.678 202.846 252.721 206.097 252.763C209.348 252.804 212.533 251.842 215.218 250.008L247.638 226.668C250.363 224.767 253.606 223.748 256.928 223.748C260.25 223.748 263.493 224.767 266.218 226.668L298.618 249.988C301.338 251.923 304.59 252.971 307.928 252.988Z" fill="black"/><path d="M209.619 325.408C206.926 323.463 203.69 322.414 200.369 322.408H160.838C157.55 322.36 154.353 321.312 151.674 319.404C148.995 317.497 146.96 314.819 145.838 311.728L133.578 272.168C132.509 269.042 130.487 266.331 127.796 264.415C125.105 262.499 121.882 261.475 118.578 261.488C115.482 261.248 112.381 261.904 109.647 263.377C106.913 264.851 104.661 267.08 103.159 269.798L90.9085 309.358C89.8882 312.514 87.878 315.257 85.1761 317.181C82.4743 319.104 79.2246 320.106 75.9085 320.038H36.3783C32.9385 319.848 29.5308 320.789 26.6761 322.718C23.8214 324.646 21.6759 327.456 20.5677 330.718C19.672 334.015 19.8397 337.51 21.0462 340.706C22.2528 343.902 24.4375 346.636 27.2884 348.518L60.098 371.858C62.3747 373.819 64.0614 376.374 64.9691 379.239C65.8768 382.103 65.9694 385.164 65.2376 388.078L52.9281 427.648C52.1014 429.981 51.8486 432.478 52.1908 434.93C52.5329 437.381 53.46 439.714 54.8939 441.731C56.3278 443.749 58.2265 445.391 60.4291 446.52C62.6316 447.649 65.0732 448.232 67.5482 448.218C70.9257 448.328 74.2504 447.357 77.0384 445.448L109.458 421.718C112.181 419.81 115.424 418.787 118.748 418.787C122.072 418.787 125.316 419.81 128.038 421.718L160.448 445.448C163.087 447.378 166.273 448.418 169.543 448.418C172.813 448.418 175.998 447.378 178.638 445.448C181.195 443.673 183.188 441.2 184.379 438.324C185.571 435.449 185.91 432.291 185.358 429.228L172.708 389.668C171.732 386.452 171.778 383.012 172.84 379.824C173.902 376.636 175.928 373.856 178.638 371.868L209.869 350.868C211.852 349.378 213.457 347.443 214.555 345.218C215.653 342.994 216.213 340.543 216.19 338.062C216.166 335.582 215.56 333.141 214.42 330.938C213.281 328.735 211.639 326.83 209.628 325.378L209.619 325.408Z" fill="black"/><path d="M491.118 333.228C490.067 330.08 488.053 327.343 485.362 325.401C482.67 323.46 479.437 322.413 476.118 322.408H436.578C433.29 322.361 430.093 321.314 427.413 319.406C424.734 317.499 422.699 314.82 421.578 311.728L409.328 272.168C408.252 269.047 406.227 266.341 403.538 264.426C400.849 262.512 397.629 261.484 394.328 261.488C391.431 261.477 388.583 262.241 386.08 263.703C383.578 265.164 381.512 267.269 380.098 269.798L367.848 309.358C366.828 312.514 364.817 315.257 362.115 317.181C359.414 319.104 356.164 320.106 352.848 320.038H313.308C310.005 320.028 306.783 321.053 304.093 322.969C301.403 324.884 299.379 327.594 298.308 330.718C297.199 333.816 297.06 337.179 297.908 340.358C298.757 343.538 300.553 346.384 303.058 348.518L335.468 371.858C338.108 373.897 340.055 376.699 341.046 379.884C342.037 383.068 342.024 386.481 341.008 389.658L328.748 429.218C327.921 431.552 327.668 434.05 328.011 436.502C328.354 438.954 329.281 441.288 330.716 443.305C332.151 445.323 334.051 446.966 336.255 448.094C338.459 449.222 340.902 449.803 343.378 449.788C346.757 449.906 350.084 448.935 352.868 447.018L385.278 423.288C388 421.381 391.244 420.357 394.568 420.357C397.892 420.357 401.135 421.381 403.858 423.288L436.188 446.988C438.826 448.917 442.009 449.957 445.278 449.957C448.546 449.957 451.73 448.917 454.368 446.988C457.08 445.002 459.108 442.222 460.17 439.033C461.233 435.844 461.277 432.404 460.298 429.188L447.648 389.628C446.672 386.412 446.718 382.973 447.781 379.784C448.843 376.596 450.869 373.816 453.578 371.828L485.578 350.828C488.234 348.833 490.195 346.053 491.186 342.883C492.176 339.712 492.145 336.31 491.098 333.158L491.118 333.228Z" fill="black"/></svg>